<svg width="40" height="40" viewBox="0 0 40 40" fill="none" xmlns="http://www.w3.org/2000/svg">
<path d="M19.9998 14.5859C18.8498 14.5859 17.9165 15.5193 17.9165 16.6693V16.8476C17.9165 17.1791 17.7848 17.4971 17.5504 17.7315C17.316 17.9659 16.998 18.0976 16.6665 18.0976C16.335 18.0976 16.017 17.9659 15.7826 17.7315C15.5482 17.4971 15.4165 17.1791 15.4165 16.8476V16.6693C15.4165 15.4537 15.8994 14.2879 16.7589 13.4284C17.6185 12.5688 18.7843 12.0859 19.9998 12.0859H20.1932C21.0898 12.0864 21.9648 12.3613 22.7005 12.8738C23.4362 13.3863 23.9973 14.1118 24.3084 14.9527C24.6195 15.7936 24.6657 16.7097 24.4407 17.5776C24.2157 18.4455 23.7303 19.2237 23.0498 19.8076L21.7665 20.9076C21.6055 21.0474 21.4761 21.2199 21.387 21.4136C21.2979 21.6073 21.2512 21.8177 21.2498 22.0309V22.9193C21.2498 23.2508 21.1181 23.5687 20.8837 23.8032C20.6493 24.0376 20.3314 24.1693 19.9998 24.1693C19.6683 24.1693 19.3504 24.0376 19.116 23.8032C18.8815 23.5687 18.7498 23.2508 18.7498 22.9193V22.0309C18.7498 20.8693 19.2565 19.7659 20.1382 19.0109L21.4232 17.9109C21.7164 17.6596 21.9256 17.3245 22.0226 16.9507C22.1196 16.5769 22.0998 16.1824 21.9658 15.8202C21.8318 15.458 21.5901 15.1456 21.2732 14.9249C20.9563 14.7042 20.5793 14.5859 20.1932 14.5859H19.9998ZM19.9998 28.3359C20.4419 28.3359 20.8658 28.1603 21.1783 27.8478C21.4909 27.5352 21.6665 27.1113 21.6665 26.6693C21.6665 26.2272 21.4909 25.8033 21.1783 25.4908C20.8658 25.1782 20.4419 25.0026 19.9998 25.0026C19.5578 25.0026 19.1339 25.1782 18.8213 25.4908C18.5088 25.8033 18.3332 26.2272 18.3332 26.6693C18.3332 27.1113 18.5088 27.5352 18.8213 27.8478C19.1339 28.1603 19.5578 28.3359 19.9998 28.3359Z" fill="#D75300"/>
<path d="M5.4165 19.9974C5.4165 16.1297 6.95296 12.4203 9.68786 9.68542C12.4228 6.95052 16.1321 5.41406 19.9998 5.41406C23.8676 5.41406 27.5769 6.95052 30.3118 9.68542C33.0467 12.4203 34.5832 16.1297 34.5832 19.9974C34.5832 23.8651 33.0467 27.5745 30.3118 30.3094C27.5769 33.0443 23.8676 34.5807 19.9998 34.5807C16.1321 34.5807 12.4228 33.0443 9.68786 30.3094C6.95296 27.5745 5.4165 23.8651 5.4165 19.9974ZM19.9998 7.91406C18.413 7.91406 16.8418 8.22661 15.3757 8.83385C13.9097 9.4411 12.5777 10.3311 11.4556 11.4532C10.3336 12.5752 9.44354 13.9073 8.83629 15.3733C8.22905 16.8393 7.9165 18.4106 7.9165 19.9974C7.9165 21.5842 8.22905 23.1555 8.83629 24.6215C9.44354 26.0875 10.3336 27.4196 11.4556 28.5416C12.5777 29.6636 13.9097 30.5537 15.3757 31.1609C16.8418 31.7682 18.413 32.0807 19.9998 32.0807C23.2045 32.0807 26.278 30.8077 28.544 28.5416C30.8101 26.2755 32.0832 23.2021 32.0832 19.9974C32.0832 16.7927 30.8101 13.7193 28.544 11.4532C26.278 9.18712 23.2045 7.91406 19.9998 7.91406Z" fill="#D75300"/>
</svg>
