<svg width="254" height="254" viewBox="0 0 254 254" fill="none" xmlns="http://www.w3.org/2000/svg">
<mask id="path-1-inside-1_4001_8968" fill="white">
<path d="M231.539 0C231.541 11.7077 240.884 21.2324 252.521 21.5273L253.077 21.5352V231.541C241.183 231.541 231.541 241.183 231.539 253.076H21.5391C21.537 241.183 11.8951 231.541 0.000976562 231.541H0V21.5342C11.8941 21.5342 21.537 11.8936 21.5391 0H231.539Z"/>
</mask>
<path d="M231.539 0L235.539 -0.000688417L235.538 -4H231.539V0ZM252.521 21.5273L252.42 25.5261L252.443 25.5266L252.465 25.5269L252.521 21.5273ZM253.077 21.5352H257.077V17.591L253.133 17.5356L253.077 21.5352ZM253.077 231.541L253.077 235.541L257.077 235.541V231.541H253.077ZM231.539 253.076V257.076H235.538L235.539 253.077L231.539 253.076ZM21.5391 253.076L17.5391 253.077L17.5397 257.076H21.5391V253.076ZM0.000976562 231.541L0.000989734 227.541H0.000976562V231.541ZM0 231.541H-4V235.541H0V231.541ZM0 21.5342V17.5342H-4V21.5342H0ZM21.5391 0V-4H17.5398L17.5391 -0.00068842L21.5391 0ZM231.539 0L227.539 0.000688417C227.541 13.8834 238.62 25.1763 252.42 25.5261L252.521 21.5273L252.623 17.5286C243.149 17.2885 235.541 9.53207 235.539 -0.000688417L231.539 0ZM252.521 21.5273L252.465 25.5269L253.021 25.5348L253.077 21.5352L253.133 17.5356L252.578 17.5277L252.521 21.5273ZM253.077 21.5352H249.077V231.541H253.077H257.077V21.5352H253.077ZM253.077 231.541L253.077 227.541C238.974 227.541 227.541 238.973 227.539 253.076L231.539 253.076L235.539 253.077C235.541 243.392 243.392 235.541 253.077 235.541L253.077 231.541ZM231.539 253.076V249.076H21.5391V253.076V257.076H231.539V253.076ZM21.5391 253.076L25.5391 253.076C25.5367 238.973 14.1042 227.541 0.000989734 227.541L0.000976562 231.541L0.000963391 235.541C9.68597 235.541 17.5374 243.392 17.5391 253.077L21.5391 253.076ZM0.000976562 231.541V227.541H0V231.541V235.541H0.000976562V231.541ZM0 231.541H4V21.5342H0H-4V231.541H0ZM0 21.5342V25.5342C14.1027 25.5342 25.5366 14.1034 25.5391 0.00068842L21.5391 0L17.5391 -0.00068842C17.5374 9.68384 9.68546 17.5342 0 17.5342V21.5342ZM21.5391 0V4H231.539V0V-4H21.5391V0Z" fill="#D75300" mask="url(#path-1-inside-1_4001_8968)"/>
</svg>
