<svg width="60" height="60" viewBox="0 0 60 60" fill="none" xmlns="http://www.w3.org/2000/svg">
<path fill-rule="evenodd" clip-rule="evenodd" d="M50 20.3369V39.6644C50 41.6094 48.93 43.3869 47.235 44.2569L32.235 51.9569C30.8275 52.6819 29.1725 52.6819 27.765 51.9569L12.765 44.2569C11.07 43.3869 10 41.6094 10 39.6644V20.3369C10 18.3919 11.07 16.6144 12.765 15.7444L27.765 8.04187C29.1725 7.31937 30.8275 7.31937 32.235 8.04187L47.235 15.7444C48.93 16.6144 50 18.3919 50 20.3369Z" stroke="#D75300" stroke-width="2" stroke-linecap="round" stroke-linejoin="round"/>
<path d="M49.3548 17.8203L29.9998 27.4978L10.6748 17.8353" stroke="#D75300" stroke-width="2" stroke-linecap="round" stroke-linejoin="round"/>
<path d="M22.3002 39.8609L17.7002 37.4984" stroke="#D75300" stroke-width="2" stroke-linecap="round" stroke-linejoin="round"/>
<path d="M30 28.8125V52.4975" stroke="#D75300" stroke-width="2" stroke-linecap="round" stroke-linejoin="round"/>
</svg>
