<svg width="60" height="60" viewBox="0 0 60 60" fill="none" xmlns="http://www.w3.org/2000/svg">
<path fill-rule="evenodd" clip-rule="evenodd" d="M28.8215 7.63507C19.599 8.65757 11.9215 15.8301 10.329 24.9701C9.68152 28.6926 10.014 32.2676 11.1015 35.4976C12.1665 38.6701 12.424 42.1176 11.174 45.2201C9.69652 48.8901 7.49902 50.0001 7.49902 50.0001C7.49902 50.0001 12.2115 51.5576 17.9015 49.7151C20.549 48.8551 23.349 48.6526 26.0465 49.3451C28.9665 50.0926 32.129 50.2351 35.4115 49.5926C44.4765 47.8201 51.499 40.0801 52.3965 30.8851C53.714 17.3751 42.3665 6.13257 28.8215 7.63507Z" stroke="#D75300" stroke-width="2" stroke-linecap="round" stroke-linejoin="round"/>
<path d="M21.25 25C23.32 25 25 26.68 25 28.75C25 30.82 23.32 32.5 21.25 32.5C19.18 32.5 17.5 30.82 17.5 28.75C17.5 26.68 19.18 25 21.25 25ZM31.25 25C33.32 25 35 26.68 35 28.75C35 30.82 33.32 32.5 31.25 32.5C29.18 32.5 27.5 30.82 27.5 28.75C27.5 26.68 29.18 25 31.25 25ZM41.25 25C43.32 25 45 26.68 45 28.75C45 30.82 43.32 32.5 41.25 32.5C39.18 32.5 37.5 30.82 37.5 28.75C37.5 26.68 39.18 25 41.25 25Z" fill="#D75300"/>
</svg>
