<svg width="80" height="80" viewBox="0 0 80 80" fill="none" xmlns="http://www.w3.org/2000/svg">
<path fill-rule="evenodd" clip-rule="evenodd" d="M38.429 10.1801C26.1324 11.5434 15.8957 21.1068 13.7724 33.2934C12.909 38.2568 13.3524 43.0234 14.8024 47.3301C16.2224 51.5601 16.5657 56.1568 14.899 60.2934C12.929 65.1868 9.99902 66.6668 9.99902 66.6668C9.99902 66.6668 16.2824 68.7434 23.869 66.2868C27.399 65.1401 31.1324 64.8701 34.729 65.7934C38.6224 66.7901 42.839 66.9801 47.2157 66.1234C59.3024 63.7601 68.6657 53.4401 69.8624 41.1801C71.619 23.1668 56.489 8.17677 38.429 10.1801Z" stroke="#191A18" stroke-width="2" stroke-linecap="round" stroke-linejoin="round"/>
<path d="M28.334 33.3359C31.094 33.3359 33.334 35.5759 33.334 38.3359C33.334 41.0959 31.094 43.3359 28.334 43.3359C25.574 43.3359 23.334 41.0959 23.334 38.3359C23.334 35.5759 25.574 33.3359 28.334 33.3359ZM41.667 33.3359C44.427 33.3359 46.667 35.5759 46.667 38.3359C46.667 41.0959 44.427 43.3359 41.667 43.3359C38.9071 43.3358 36.667 41.0958 36.667 38.3359C36.667 35.576 38.9071 33.3361 41.667 33.3359ZM55.001 33.3359C57.7608 33.3361 60.001 35.576 60.001 38.3359C60.001 41.0958 57.7608 43.3358 55.001 43.3359C52.241 43.3359 50.001 41.0959 50.001 38.3359C50.001 35.5759 52.241 33.3359 55.001 33.3359Z" fill="#191A18"/>
</svg>
