<svg width="60" height="60" viewBox="0 0 60 60" fill="none" xmlns="http://www.w3.org/2000/svg">
<path fill-rule="evenodd" clip-rule="evenodd" d="M52.5 30C52.5 42.4275 42.4275 52.5 30 52.5C17.5725 52.5 7.5 42.4275 7.5 30C7.5 17.5725 17.5725 7.5 30 7.5C42.4275 7.5 52.5 17.5725 52.5 30Z" stroke="#D75300" stroke-width="2" stroke-linecap="round" stroke-linejoin="round"/>
<path fill-rule="evenodd" clip-rule="evenodd" d="M37.5 23.125C37.5 27.2675 34.1425 30.625 30 30.625C25.8575 30.625 22.5 27.2675 22.5 23.125C22.5 18.9825 25.8575 15.625 30 15.625C34.1425 15.625 37.5 18.9825 37.5 23.125Z" stroke="#D75300" stroke-width="2" stroke-linecap="round" stroke-linejoin="round"/>
<path d="M15.0156 44.93C15.3781 36.9675 21.9481 30.625 30.0006 30.625C38.0506 30.625 44.6206 36.9675 44.9831 44.93" stroke="#D75300" stroke-width="2" stroke-linecap="round" stroke-linejoin="round"/>
</svg>
