<svg width="40" height="40" viewBox="0 0 40 40" fill="none" xmlns="http://www.w3.org/2000/svg">
<path d="M33.3327 16.6693C33.3327 27.5026 19.9993 36.6693 19.9993 36.6693C19.9993 36.6693 6.66602 27.5026 6.66602 16.6693C6.66602 13.1331 8.07077 9.74167 10.5713 7.24118C13.0717 4.7407 16.4631 3.33594 19.9993 3.33594C23.5356 3.33594 26.927 4.7407 29.4274 7.24118C31.9279 9.74167 33.3327 13.1331 33.3327 16.6693Z" stroke="#D75300" stroke-width="3.33333"/>
<path d="M25 16.6719C25 17.998 24.4732 19.2697 23.5355 20.2074C22.5979 21.1451 21.3261 21.6719 20 21.6719C18.6739 21.6719 17.4021 21.1451 16.4645 20.2074C15.5268 19.2697 15 17.998 15 16.6719C15 15.3458 15.5268 14.074 16.4645 13.1363C17.4021 12.1987 18.6739 11.6719 20 11.6719C21.3261 11.6719 22.5979 12.1987 23.5355 13.1363C24.4732 14.074 25 15.3458 25 16.6719Z" stroke="#D75300" stroke-width="3.33333"/>
</svg>
