<svg width="190" height="190" viewBox="0 0 190 190" fill="none" xmlns="http://www.w3.org/2000/svg">
<path d="M145.946 145.234C97.2206 194.168 36.6834 203.781 14.7465 170.138C-4.65911 140.428 13.6919 87.5617 53.3469 49.3318C92.3691 11.7572 143.836 -3.75318 171.679 16.1264C203.108 38.4089 193.827 97.1738 145.946 145.234Z" fill="#D75300"/>
<path d="M109.883 4.23438C131.031 -1.83296 150.68 -0.71241 164.428 9.10352L164.429 9.10449C180.034 20.2022 185.563 40.2849 181.181 63.6553C176.8 87.0209 162.517 113.586 138.632 137.451L138.631 137.452C114.325 161.863 87.0973 176.438 63.2511 180.73C39.7736 184.957 19.662 179.213 8.71887 163.205L8.2052 162.436L7.76184 161.743C-1.38968 147.118 -1.56947 126.953 5.41418 105.656C12.5046 84.0339 26.9565 61.3271 46.7325 42.2617L46.7335 42.2627C66.1941 23.5241 88.7467 10.2984 109.883 4.23438Z" fill="#F9F9EF" stroke="#D75300"/>
<path d="M118.525 116.62C89.2054 145.675 52.5033 152.884 37.7381 133.441C24.2385 115.528 34.996 81.6673 60.7296 56.7632C86.4632 31.8592 119.369 22.684 136.454 36.6652C154.805 51.5203 147.422 87.7841 118.525 116.62Z" fill="#D75300"/>
<path d="M99.7516 97.175C88.1504 108.535 73.3852 111.812 67.0573 104.603C60.7294 97.3935 64.948 83.4122 75.9164 72.7079C86.8849 62.0035 101.017 58.5082 107.767 64.8434C114.517 71.1787 111.353 85.8153 99.7516 97.175Z" fill="#F9F9EF"/>
<path d="M77.604 71.8329C76.5398 72.8559 75.2907 73.6507 73.9287 74.1717C72.5667 74.6927 71.1187 74.9295 69.668 74.8686C68.2172 74.8077 66.7924 74.4503 65.4756 73.8168C64.1588 73.1833 62.9758 72.2863 61.9951 71.1775L24.4494 21.5879C23.5139 20.3402 23.0605 18.7765 23.1775 17.2015C23.2945 15.6264 23.9734 14.153 25.0821 13.0681C26.2101 12.0135 27.6757 11.4297 29.1953 11.4297C30.7149 11.4297 32.1805 12.0135 33.3085 13.0681L78.0259 55.6671C79.0728 56.7295 79.8966 58.0041 80.4461 59.4113C80.9956 60.8185 81.2588 62.3279 81.2192 63.8453C81.1796 65.3627 80.8381 66.8553 80.2161 68.2297C79.594 69.6041 78.7048 70.8307 77.604 71.8329Z" fill="#191A18"/>
<path d="M33.0975 30.9804L21.0744 32.7281C20.3287 32.8133 19.6231 33.1217 19.0439 33.6157C18.4648 34.1096 18.0372 34.7676 17.8134 35.5093C17.5896 36.2509 17.5794 37.044 17.7839 37.7916C17.9885 38.5392 18.3989 39.2089 18.9651 39.7187C26.3591 46.4466 35.4157 50.9095 45.1205 52.6076L51.2376 53.6999C51.3973 53.7329 51.563 53.716 51.7135 53.6514C51.864 53.5868 51.9926 53.4774 52.083 53.337C52.1734 53.1966 52.2215 53.0316 52.2211 52.8628C52.2208 52.6941 52.1722 52.5292 52.0813 52.3892L36.8943 32.5096C36.4268 31.9572 35.8376 31.5298 35.1766 31.2636C34.5156 30.9973 33.8025 30.9002 33.0975 30.9804Z" fill="#D75300"/>
<path d="M41.9566 22.6869L44.6988 10.4533C44.8664 9.69868 45.2386 9.00936 45.7718 8.46651C46.3049 7.92366 46.9768 7.54991 47.7082 7.38923C48.4396 7.22855 49.2 7.28764 49.9 7.55957C50.6001 7.8315 51.2106 8.30494 51.6595 8.92412C57.5949 17.0415 61.1794 26.7394 61.9951 36.8866L62.417 43.2218C62.417 43.8772 61.5733 44.3141 61.1514 43.8772L43.2223 26.8376C42.655 26.3396 42.2351 25.6857 42.0112 24.9513C41.7873 24.2169 41.7684 23.4319 41.9566 22.6869Z" fill="#D75300"/>
<path d="M75.9161 69.875L87.9392 83.2008" stroke="#191A18" stroke-width="1.8" stroke-linecap="round" stroke-linejoin="round"/>
</svg>
