<svg width="120" height="191" viewBox="0 0 120 191" fill="none" xmlns="http://www.w3.org/2000/svg">
<path d="M68.1743 34.7229V2.83899C68.163 2.08956 67.8609 1.37395 67.3318 0.843963C66.8028 0.313974 66.0886 0.0112716 65.3405 0H50.9535C50.2055 0.0112716 49.4911 0.313974 48.9621 0.843963C48.4331 1.37395 48.1309 2.08956 48.1196 2.83899V34.7229H39.8362C39.3492 34.7172 38.8696 34.8414 38.4463 35.0826C38.0229 35.3238 37.6713 35.6735 37.4272 36.0957C37.1832 36.518 37.0557 36.9976 37.0576 37.4855C37.0596 37.9734 37.191 38.452 37.4384 38.8722L55.5312 67.4804C55.7664 67.8788 56.1012 68.2089 56.5026 68.4382C56.9039 68.6675 57.358 68.7881 57.82 68.7881C58.282 68.7881 58.7361 68.6675 59.1374 68.4382C59.5388 68.2089 59.8735 67.8788 60.1088 67.4804L78.2017 38.8722C78.4491 38.452 78.5805 37.9734 78.5825 37.4855C78.5844 36.9976 78.4569 36.518 78.2129 36.0957C77.9689 35.6735 77.6172 35.3238 77.1938 35.0826C76.7705 34.8414 76.2907 34.7172 75.8038 34.7229H68.1743Z" fill="#D75300"/>
<path d="M106.75 55.0938L106.98 55.1084C107.513 55.1685 108.012 55.408 108.395 55.791C108.83 56.2272 109.08 56.8157 109.091 57.4326V89.8164H117.227C117.625 89.8118 118.017 89.9131 118.363 90.1104C118.709 90.3076 118.998 90.5939 119.197 90.9395C119.397 91.285 119.501 91.6778 119.499 92.0771C119.497 92.4765 119.39 92.868 119.188 93.2119L101.104 121.807L101.096 121.82C100.905 122.144 100.632 122.412 100.307 122.598C99.9809 122.784 99.6122 122.882 99.2373 122.882C98.8624 122.882 98.4938 122.784 98.168 122.598C97.8423 122.412 97.57 122.144 97.3789 121.82L97.3711 121.807L79.2783 93.1982C79.0811 92.8577 78.9762 92.4712 78.9746 92.0771C78.973 91.6778 79.0777 91.285 79.2773 90.9395C79.477 90.5941 79.7643 90.3076 80.1104 90.1104C80.4565 89.9131 80.849 89.8118 81.2471 89.8164H90.0361V57.4404C90.0454 56.8207 90.2962 56.229 90.7334 55.791C91.1158 55.408 91.6149 55.1685 92.1475 55.1084L92.3779 55.0938H106.75Z" fill="#F9F9EF" stroke="#D75300"/>
<path d="M47.637 190.927V181.295C46.629 181.407 45.733 181.407 44.837 181.407H42.485V190.927H36.101V180.847C22.885 179.279 12.021 173.231 12.021 155.647V154.303H27.813V155.647C27.813 161.359 31.509 164.271 36.101 165.503V146.799C24.565 144.335 13.253 139.631 13.253 122.383C13.253 107.823 23.669 102.111 36.101 100.431V90.1266H42.485V99.9826C43.269 99.9826 44.053 99.8706 44.949 99.8706C45.845 99.8706 46.741 99.9826 47.637 99.9826V90.1266H54.021V100.431C66.677 102.111 76.533 108.383 76.533 125.631V126.975H60.741V125.631C60.741 120.255 57.941 117.231 54.021 115.999V133.135C65.781 135.711 77.877 140.415 77.877 157.887C77.877 173.119 67.125 179.167 54.021 180.847V190.927H47.637ZM47.637 148.927L42.485 147.919V166.063H47.637V148.927ZM42.485 130.895L47.637 131.903V115.215H42.485V130.895ZM59.845 157.887C59.845 154.191 57.605 151.951 54.021 150.607V165.391C57.829 164.159 59.845 161.471 59.845 157.887ZM31.285 122.383C31.285 125.631 33.077 127.647 36.101 128.991V115.999C32.853 117.231 31.285 119.471 31.285 122.383Z" fill="#191A18"/>
</svg>
