<svg width="120" height="190" viewBox="0 0 120 190" fill="none" xmlns="http://www.w3.org/2000/svg">
<path d="M70.0865 178.965C70.0865 176.782 69.4815 174.649 68.348 172.834C67.2145 171.019 65.6034 169.605 63.7184 168.77C61.8335 167.934 59.7593 167.716 57.7583 168.142C55.7572 168.568 53.9191 169.619 52.4765 171.162C51.0338 172.705 50.0513 174.671 49.6532 176.812C49.2552 178.952 49.4595 181.171 50.2403 183.188C51.021 185.204 52.3432 186.927 54.0396 188.14C55.736 189.353 57.7305 190 59.7708 190C61.1288 190.013 62.4757 189.736 63.7328 189.186C64.9898 188.636 66.1319 187.824 67.0922 186.797C68.0525 185.769 68.812 184.548 69.3261 183.203C69.8402 181.858 70.0987 180.417 70.0865 178.965Z" fill="#D75300"/>
<path d="M57.7568 0.545898C73.1074 -0.0776609 88.0942 5.67627 99.5771 16.6133C111.061 27.5514 118.149 42.8258 119.347 59.2393C119.93 67.9601 118.842 76.716 116.149 84.9697C113.457 93.2238 109.216 100.801 103.69 107.235C92.0828 120.669 85.6481 138.29 85.667 156.571V167.931C85.6354 170.81 84.5522 173.557 82.6572 175.584C80.7619 177.611 78.2069 178.758 75.542 178.79H44.6064C41.9417 178.758 39.3874 177.611 37.4922 175.584C35.5959 173.555 34.5117 170.807 34.4814 167.925V156.571C34.5542 138.374 28.1064 120.833 16.4561 107.557C6.15784 95.7704 0.447793 80.2181 0.5 64.0732V64.0723C0.530341 47.6087 6.51539 31.8019 17.1924 19.9619C27.8685 8.12295 42.406 1.16949 57.7568 0.545898Z" fill="#F9F9EF" stroke="#D75300"/>
<path d="M33.6782 156.578H85.8639" stroke="#191A18" stroke-width="1.8" stroke-linecap="round" stroke-linejoin="round"/>
<path d="M33.6782 167.602H85.8639" stroke="#191A18" stroke-width="1.8" stroke-linecap="round" stroke-linejoin="round"/>
<path d="M54.31 156.571V67.642C54.2995 65.796 53.822 63.9874 52.928 62.4083C52.034 60.8291 50.757 59.5384 49.2325 58.6731C47.7081 57.8078 45.993 57.4002 44.2694 57.4936C42.5459 57.5869 40.8781 58.1779 39.4432 59.2035C38.2816 60.0908 37.3199 61.2443 36.6283 62.5798C35.9366 63.9153 35.5324 65.3993 35.4452 66.9232C35.358 68.4471 35.5899 69.9727 36.1241 71.3885C36.6583 72.8043 37.4812 74.0747 38.5329 75.1069L42.1738 78.6771" stroke="#191A18" stroke-width="1.8" stroke-linecap="round" stroke-linejoin="round"/>
<path d="M65.2319 156.571V67.642C65.2423 65.796 65.7198 63.9874 66.6138 62.4083C67.5078 60.8291 68.7848 59.5384 70.3092 58.6731C71.8337 57.8078 73.5488 57.4002 75.2724 57.4936C76.9959 57.5869 78.6637 58.1779 80.0986 59.2035C81.2602 60.0908 82.222 61.2443 82.9136 62.5798C83.6053 63.9153 84.0093 65.3993 84.0966 66.9232C84.1838 68.4471 83.9519 69.9727 83.4177 71.3885C82.8835 72.8043 82.0607 74.0747 81.009 75.1069L77.3681 78.6771" stroke="#191A18" stroke-width="1.8" stroke-linecap="round" stroke-linejoin="round"/>
</svg>
