<svg width="191" height="191" viewBox="0 0 191 191" fill="none" xmlns="http://www.w3.org/2000/svg">
<path d="M132.125 144.006C130.877 144.19 129.616 143.818 128.574 142.959L105.561 123.937C104.994 123.468 104.508 122.868 104.13 122.17C103.753 121.472 103.493 120.69 103.363 119.869C103.234 119.048 103.239 118.205 103.377 117.386C103.515 116.567 103.784 115.79 104.169 115.098C104.554 114.406 105.047 113.814 105.619 113.354C106.192 112.894 106.833 112.576 107.506 112.419C108.18 112.261 108.872 112.267 109.544 112.435C110.215 112.604 110.853 112.932 111.421 113.401L134.434 132.423C135.313 133.152 135.989 134.192 136.371 135.402C136.753 136.612 136.822 137.936 136.57 139.196C136.318 140.456 135.756 141.591 134.959 142.451C134.163 143.311 133.17 143.853 132.113 144.006H132.125Z" fill="white" stroke="#191A18" stroke-linecap="round" stroke-linejoin="round"/>
<path d="M180.779 190.405C178.145 190.787 175.485 189.999 173.29 188.184L123.435 146.986C122.212 146.009 121.161 144.746 120.342 143.269C119.524 141.792 118.955 140.132 118.668 138.384C118.381 136.637 118.382 134.837 118.671 133.09C118.96 131.344 119.532 129.684 120.352 128.209C121.173 126.734 122.225 125.473 123.45 124.498C124.674 123.524 126.045 122.856 127.483 122.534C128.92 122.212 130.397 122.241 131.825 122.621C133.253 123.001 134.605 123.724 135.803 124.747L185.658 165.923C187.519 167.459 188.95 169.652 189.76 172.208C190.57 174.764 190.719 177.56 190.188 180.222C189.657 182.884 188.472 185.285 186.79 187.102C185.108 188.92 183.011 190.067 180.779 190.391V190.405Z" fill="#D75300" stroke="#191A18" stroke-miterlimit="10"/>
<path d="M55.8168 2.22664C44.0235 3.94174 32.9122 9.8815 23.8884 19.2947C14.8645 28.7079 8.33336 41.1717 5.12094 55.1098C1.90853 69.0479 2.15913 83.8342 5.84107 97.5986C9.523 111.363 16.4709 123.487 25.806 132.438C35.1411 141.389 46.4441 146.764 58.2855 147.884C70.1269 149.004 81.9748 145.818 92.3308 138.73C102.687 131.641 111.086 120.968 116.465 108.061C121.845 95.1534 123.963 80.5911 122.553 66.2159C120.662 46.9439 112.57 29.3763 100.055 17.3765C87.5398 5.37676 71.6274 -0.0726885 55.8168 2.22664ZM69.2232 139.221C58.7888 140.738 48.2197 138.449 38.8524 132.644C29.4851 126.838 21.7404 117.778 16.5975 106.607C11.4547 95.4365 9.14466 82.6578 9.95958 69.887C10.7745 57.1161 14.6778 44.9266 21.1758 34.8598C27.6739 24.793 36.4748 17.3011 46.4659 13.3313C56.4569 9.36156 67.1892 9.09227 77.3058 12.5575C87.4224 16.0228 96.4688 23.0669 103.301 32.7993C110.134 42.5316 114.445 54.515 115.69 67.2341C117.359 84.2912 113.401 101.458 104.687 114.958C95.9725 128.458 83.2161 137.185 69.2232 139.221Z" fill="white" stroke="#191A18" stroke-linecap="round" stroke-linejoin="round"/>
<path d="M53.4589 1.01208C41.6645 2.72124 30.5509 8.65572 21.5236 18.0649C12.4964 27.4741 5.96103 39.9353 2.74421 53.8725C-0.472603 67.8096 -0.226392 82.5966 3.4517 96.3632C7.1298 110.13 14.0745 122.257 23.4076 131.212C32.7406 140.167 44.0426 145.547 55.8842 146.672C67.7258 147.796 79.575 144.614 89.933 137.529C100.291 130.444 108.693 119.773 114.075 106.867C119.458 93.9609 121.579 79.3988 120.172 65.0225C118.285 45.7522 110.198 28.184 97.6875 16.1805C85.1772 4.1771 69.2685 -1.27892 53.4589 1.01208ZM66.8653 138.007C56.4309 139.523 45.8618 137.234 36.4945 131.429C27.1272 125.624 19.3825 116.563 14.2397 105.392C9.09679 94.2219 6.78677 81.4433 7.6017 68.6724C8.41662 55.9016 12.3199 43.7121 18.8179 33.6453C25.316 23.5785 34.1169 16.0865 44.108 12.1168C54.099 8.147 64.8313 7.87772 74.9479 11.343C85.0645 14.8082 94.1109 21.8524 100.943 31.5847C107.776 41.317 112.087 53.3004 113.332 66.0196C115.001 83.0767 111.043 100.243 102.329 113.743C93.6146 127.243 80.8582 135.971 66.8653 138.007Z" fill="white" stroke="#191A18" stroke-linecap="round" stroke-linejoin="round"/>
</svg>
