<svg width="305" height="94" viewBox="0 0 305 94" fill="none" xmlns="http://www.w3.org/2000/svg">
<path d="M153.937 17.2253C151.836 16.8683 149.735 16.5114 133.319 15.7921C116.902 15.0727 86.2336 14.0019 69.1741 13.6287C49.6004 13.2005 38.1743 17.1928 23.3364 22.9528C8.26795 28.8023 3.7371 38.1018 1.38188 44.2458C0.33099 46.9872 1.58557 50.7359 3.48248 55.4088C5.92631 61.4289 12.1777 65.1656 19.1415 68.5783C30.8353 74.309 47.3406 79.5628 60.9054 85.8691C69.0363 89.6491 80.441 90.4121 111.231 91.8508C134.02 92.9156 171.429 93.2894 195.732 92.7648C220.036 92.2402 230.119 90.4554 239.304 89.179C256.404 86.8029 270.578 85.0253 281.17 81.4341C296.872 76.1105 297.363 65.5766 300.54 58.0048C306.094 44.764 303.742 38.5129 301.845 35.4571C299.201 31.1983 284.327 26.279 261.685 18.9019C249.966 15.4513 237.783 12.5957 210.71 9.69675C183.638 6.79784 142.046 3.94219 99.1937 1" stroke="#D75300" stroke-width="2" stroke-linecap="round"/>
</svg>
