<svg width="195" height="95" viewBox="0 0 195 95" fill="none" xmlns="http://www.w3.org/2000/svg">
<path d="M55.1127 24.5871C70.8513 20.8806 82.8938 18.6005 93.2273 18.0389C108.34 17.2175 121.313 18.2186 133.614 20.2628C171.602 26.5759 181.366 33.9321 188.454 39.1662C194.423 43.5739 193.767 54.1047 193.998 66.106C194.065 69.5374 192.018 72.1208 190.037 74.7378C184.592 81.9326 163.826 84.4759 147.028 86.5426C132.302 88.3542 120.081 91.2151 94.3004 93.8434C83.5317 94.9412 66.2808 90.1481 45.3224 83.2292C27.6199 77.3851 18.5216 71.0425 11.4141 65.7916C3.36331 59.8438 1.69662 45.9952 1.01435 28.3947C0.780538 22.3632 3.43211 18.6117 6.94946 15.624C11.4258 11.8218 21.4892 9.25549 34.0417 5.89152C47.0314 3.26886 63.406 2.1232 79.7275 1.93787C86.431 1.75254 89.9285 1.38189 94.8568 1" stroke="#D75300" stroke-width="2" stroke-linecap="round"/>
</svg>
