<svg width="751" height="269" viewBox="0 0 751 269" fill="none" xmlns="http://www.w3.org/2000/svg">
<path d="M395.5 228.934C390.321 229.99 386.472 233.149 346 235.278C305.528 237.407 212.13 235.835 170.073 236.939C121.817 238.207 93.6475 226.39 57.0669 209.34C19.918 192.026 8.7479 164.499 2.94146 146.313C0.350659 138.198 3.44364 127.102 8.12018 113.27C14.1451 95.4505 29.5569 84.39 46.7252 74.2883C75.5544 57.3254 116.246 41.7741 149.688 23.1076C169.733 11.9187 197.85 9.66008 273.757 5.40169C329.94 2.24986 422.167 1.14327 482.083 2.69614C541.999 4.24901 566.857 9.53198 589.502 13.3101C631.658 20.3435 666.602 25.605 692.715 36.235C731.426 51.9931 732.639 83.1733 740.469 105.586C754.163 144.779 748.363 163.282 743.686 172.327C737.169 184.933 700.499 199.494 644.679 221.331C615.788 231.544 585.751 239.997 519.009 248.578C452.266 257.159 405.146 258.291 299.5 267" stroke="#D75300" stroke-width="4" stroke-linecap="round"/>
</svg>
