<svg width="16" height="16" viewBox="0 0 16 16" fill="none" xmlns="http://www.w3.org/2000/svg">
<path fill-rule="evenodd" clip-rule="evenodd" d="M7.686 2.03602C5.22667 2.30869 3.17933 4.22135 2.75467 6.65869C2.582 7.65135 2.67067 8.60469 2.96067 9.46602C3.24467 10.312 3.31333 11.2314 2.98 12.0587C2.586 13.0374 2 13.3334 2 13.3334C2 13.3334 3.25667 13.7487 4.774 13.2574C5.48 13.028 6.22667 12.974 6.946 13.1587C7.72467 13.358 8.568 13.396 9.44333 13.2247C11.8607 12.752 13.7333 10.688 13.9727 8.23602C14.324 4.63335 11.298 1.63535 7.686 2.03602Z" stroke="#F9F9EF" stroke-linecap="round" stroke-linejoin="round"/>
<path d="M5.52441 6.76562C5.8397 6.76562 6.09548 7.02168 6.0957 7.33691C6.0957 7.65234 5.83984 7.90918 5.52441 7.90918C5.20905 7.9091 4.95312 7.6523 4.95312 7.33691C4.95335 7.02172 5.20919 6.7657 5.52441 6.76562ZM8.19141 6.76562C8.50657 6.76578 8.76247 7.02177 8.7627 7.33691C8.7627 7.65225 8.50671 7.90903 8.19141 7.90918C7.87598 7.90918 7.62012 7.65234 7.62012 7.33691C7.62034 7.02168 7.87612 6.76562 8.19141 6.76562ZM10.8584 6.76562C11.1735 6.76585 11.4295 7.02182 11.4297 7.33691C11.4297 7.6522 11.1736 7.90895 10.8584 7.90918C10.543 7.90918 10.2861 7.65234 10.2861 7.33691C10.2864 7.02168 10.5431 6.76562 10.8584 6.76562Z" fill="#F9F9EF"/>
</svg>
