<svg width="80" height="80" viewBox="0 0 80 80" fill="none" xmlns="http://www.w3.org/2000/svg">
<path fill-rule="evenodd" clip-rule="evenodd" d="M66.6673 27.1158V52.8858C66.6673 55.4792 65.2406 57.8492 62.9807 59.0092L42.9807 69.2758C41.104 70.2425 38.8973 70.2425 37.0207 69.2758L17.0207 59.0092C14.7607 57.8492 13.334 55.4792 13.334 52.8858V27.1158C13.334 24.5225 14.7607 22.1525 17.0207 20.9925L37.0207 10.7225C38.8973 9.75917 41.104 9.75917 42.9807 10.7225L62.9807 20.9925C65.2406 22.1525 66.6673 24.5225 66.6673 27.1158Z" stroke="#191A18" stroke-width="2" stroke-linecap="round" stroke-linejoin="round"/>
<path d="M65.8058 23.7656L39.9991 36.669L14.2324 23.7856" stroke="#191A18" stroke-width="2" stroke-linecap="round" stroke-linejoin="round"/>
<path d="M29.7329 53.1479L23.5996 49.9979" stroke="#191A18" stroke-width="2" stroke-linecap="round" stroke-linejoin="round"/>
<path d="M40.0007 38.4219V70.0019" stroke="#191A18" stroke-width="2" stroke-linecap="round" stroke-linejoin="round"/>
</svg>
