<svg width="40" height="40" viewBox="0 0 40 40" fill="none" xmlns="http://www.w3.org/2000/svg">
<path d="M29.4869 18.5392C29.3146 18.4566 29.1396 18.3772 28.9623 18.3011C28.6536 12.6121 25.545 9.35521 20.3254 9.32187C20.3018 9.32173 20.2783 9.32173 20.2546 9.32173C17.1326 9.32173 14.5361 10.6544 12.938 13.0793L15.8086 15.0485C17.0025 13.2371 18.8761 12.851 20.256 12.851C20.2719 12.851 20.2879 12.851 20.3037 12.8511C22.0223 12.8621 23.3192 13.3618 24.1586 14.3363C24.7694 15.0457 25.178 16.026 25.3802 17.2633C23.8565 17.0043 22.2086 16.9247 20.4469 17.0257C15.4844 17.3115 12.294 20.2058 12.5083 24.2275C12.617 26.2675 13.6333 28.0225 15.3698 29.169C16.838 30.1381 18.729 30.6121 20.6943 30.5048C23.2896 30.3625 25.3257 29.3723 26.7461 27.5617C27.8248 26.1867 28.5071 24.4048 28.8084 22.1596C30.0452 22.906 30.9619 23.8883 31.4682 25.0692C32.329 27.0765 32.3792 30.375 29.6877 33.0642C27.3296 35.42 24.495 36.4392 20.2112 36.4706C15.4592 36.4354 11.8654 34.9115 9.52881 31.941C7.34077 29.1596 6.20998 25.1421 6.16779 20C6.20998 14.8579 7.34077 10.8403 9.52881 8.0589C11.8654 5.08852 15.4592 3.56458 20.2111 3.52927C24.9975 3.56485 28.654 5.09612 31.08 8.08083C32.2696 9.5445 33.1665 11.3852 33.7577 13.5313L37.1217 12.6338C36.405 9.99212 35.2773 7.71577 33.7427 5.82792C30.6325 2.00139 26.0838 0.0406558 20.2229 0H20.1994C14.3504 0.0405146 9.85256 2.00871 6.83094 5.84985C4.1421 9.268 2.75512 14.0241 2.70852 19.9859L2.70837 20L2.70852 20.0141C2.75512 25.9758 4.1421 30.7321 6.83094 34.1502C9.85256 37.9913 14.3504 39.9596 20.1994 40H20.2229C25.423 39.964 29.0884 38.6025 32.108 35.5856C36.0586 31.6388 35.9396 26.6915 34.6375 23.6544C33.7034 21.4765 31.9223 19.7075 29.4869 18.5392ZM20.5085 26.9806C18.3335 27.1031 16.0739 26.1269 15.9625 24.0358C15.8799 22.4854 17.0658 20.7554 20.642 20.5493C21.0515 20.5257 21.4534 20.5142 21.8482 20.5142C23.1471 20.5142 24.3623 20.6404 25.4671 20.8819C25.055 26.0281 22.638 26.8638 20.5085 26.9806Z" fill="#F9F9EF"/>
</svg>
