<svg width="80" height="80" viewBox="0 0 80 80" fill="none" xmlns="http://www.w3.org/2000/svg">
<path fill-rule="evenodd" clip-rule="evenodd" d="M70 40C70 56.57 56.57 70 40 70C23.43 70 10 56.57 10 40C10 23.43 23.43 10 40 10C56.57 10 70 23.43 70 40Z" stroke="#191A18" stroke-width="2" stroke-linecap="round" stroke-linejoin="round"/>
<path fill-rule="evenodd" clip-rule="evenodd" d="M50 30.8281C50 36.3515 45.5233 40.8281 40 40.8281C34.4767 40.8281 30 36.3515 30 30.8281C30 25.3048 34.4767 20.8281 40 20.8281C45.5233 20.8281 50 25.3048 50 30.8281Z" stroke="#191A18" stroke-width="2" stroke-linecap="round" stroke-linejoin="round"/>
<path d="M20.0215 59.9015C20.5048 49.2848 29.2648 40.8281 40.0015 40.8281C50.7348 40.8281 59.4948 49.2848 59.9782 59.9015" stroke="#191A18" stroke-width="2" stroke-linecap="round" stroke-linejoin="round"/>
</svg>
