<svg width="60" height="60" viewBox="0 0 60 60" fill="none" xmlns="http://www.w3.org/2000/svg">
<path d="M30 21.875C28.275 21.875 26.875 23.275 26.875 25V25.2675C26.875 25.7648 26.6775 26.2417 26.3258 26.5933C25.9742 26.945 25.4973 27.1425 25 27.1425C24.5027 27.1425 24.0258 26.945 23.6742 26.5933C23.3225 26.2417 23.125 25.7648 23.125 25.2675V25C23.125 23.1766 23.8493 21.428 25.1386 20.1386C26.428 18.8493 28.1766 18.125 30 18.125H30.29C31.6349 18.1256 32.9474 18.538 34.051 19.3068C35.1545 20.0756 35.9962 21.1638 36.4629 22.4252C36.9295 23.6866 36.9988 25.0606 36.6613 26.3625C36.3238 27.6644 35.5957 28.8317 34.575 29.7075L32.65 31.3575C32.4085 31.5672 32.2144 31.8259 32.0808 32.1164C31.9472 32.407 31.877 32.7227 31.875 33.0425V34.375C31.875 34.8723 31.6775 35.3492 31.3258 35.7008C30.9742 36.0525 30.4973 36.25 30 36.25C29.5027 36.25 29.0258 36.0525 28.6742 35.7008C28.3225 35.3492 28.125 34.8723 28.125 34.375V33.0425C28.125 31.3 28.885 29.645 30.2075 28.5125L32.135 26.8625C32.5748 26.4855 32.8886 25.9829 33.0341 25.4222C33.1796 24.8615 33.1499 24.2697 32.9489 23.7264C32.7479 23.1831 32.3854 22.7144 31.91 22.3834C31.4346 22.0524 30.8693 21.875 30.29 21.875H30ZM30 42.5C30.663 42.5 31.2989 42.2366 31.7678 41.7678C32.2366 41.2989 32.5 40.663 32.5 40C32.5 39.337 32.2366 38.7011 31.7678 38.2322C31.2989 37.7634 30.663 37.5 30 37.5C29.337 37.5 28.7011 37.7634 28.2322 38.2322C27.7634 38.7011 27.5 39.337 27.5 40C27.5 40.663 27.7634 41.2989 28.2322 41.7678C28.7011 42.2366 29.337 42.5 30 42.5Z" fill="#191A18"/>
<path d="M8.125 30C8.125 24.1984 10.4297 18.6344 14.532 14.532C18.6344 10.4297 24.1984 8.125 30 8.125C35.8016 8.125 41.3656 10.4297 45.468 14.532C49.5703 18.6344 51.875 24.1984 51.875 30C51.875 35.8016 49.5703 41.3656 45.468 45.468C41.3656 49.5703 35.8016 51.875 30 51.875C24.1984 51.875 18.6344 49.5703 14.532 45.468C10.4297 41.3656 8.125 35.8016 8.125 30ZM30 11.875C27.6198 11.875 25.2629 12.3438 23.0639 13.2547C20.8648 14.1655 18.8667 15.5006 17.1837 17.1837C15.5006 18.8668 14.1655 20.8648 13.2547 23.0639C12.3438 25.2629 11.875 27.6198 11.875 30C11.875 32.3802 12.3438 34.7371 13.2547 36.9361C14.1655 39.1352 15.5006 41.1332 17.1837 42.8163C18.8667 44.4994 20.8648 45.8344 23.0639 46.7453C25.2629 47.6562 27.6198 48.125 30 48.125C34.807 48.125 39.4172 46.2154 42.8163 42.8163C46.2154 39.4172 48.125 34.807 48.125 30C48.125 25.193 46.2154 20.5828 42.8163 17.1837C39.4172 13.7846 34.807 11.875 30 11.875Z" fill="#191A18"/>
</svg>
