<svg width="100" height="100" viewBox="0 0 100 100" fill="none" xmlns="http://www.w3.org/2000/svg">
<path d="M50 84C31.2 84 16 68.8 16 50C16 31.2 31.2 16 50 16C68.8 16 84 31.2 84 50C84 68.8 68.8 84 50 84ZM50 20C33.4 20 20 33.4 20 50C20 66.6 33.4 80 50 80C66.6 80 80 66.6 80 50C80 33.4 66.6 20 50 20Z" fill="#D75300"/>
<path d="M66.6001 53.4002L50.0001 36.8002L33.4001 53.4002L30.6001 50.6002L50.0001 31.2002L69.4001 50.6002L66.6001 53.4002Z" fill="#D75300"/>
<path d="M48 34H52V68H48V34Z" fill="#D75300"/>
</svg>
