<svg width="88" height="16" viewBox="0 0 88 16" fill="none" xmlns="http://www.w3.org/2000/svg">
<path d="M7.27999 1.8161C7.35335 1.69021 7.45845 1.58575 7.58478 1.51315C7.71112 1.44055 7.85428 1.40234 7.99999 1.40234C8.1457 1.40234 8.28886 1.44055 8.4152 1.51315C8.54153 1.58575 8.64663 1.69021 8.71999 1.8161L10.5833 5.01477L14.202 5.79877C14.3443 5.8297 14.4761 5.8974 14.5841 5.99512C14.6921 6.09284 14.7726 6.21717 14.8176 6.35571C14.8626 6.49426 14.8705 6.64217 14.8405 6.78471C14.8105 6.92725 14.7437 7.05944 14.6467 7.1681L12.18 9.92877L12.5533 13.6121C12.5681 13.7571 12.5445 13.9035 12.4849 14.0366C12.4254 14.1696 12.332 14.2848 12.2141 14.3705C12.0961 14.4562 11.9578 14.5094 11.8128 14.5249C11.6679 14.5404 11.5214 14.5176 11.388 14.4588L7.99999 12.9654L4.61199 14.4588C4.4786 14.5176 4.33212 14.5404 4.18716 14.5249C4.0422 14.5094 3.90385 14.4562 3.7859 14.3705C3.66796 14.2848 3.57457 14.1696 3.51504 14.0366C3.45551 13.9035 3.43193 13.7571 3.44666 13.6121L3.81999 9.92877L1.35332 7.16877C1.25614 7.06012 1.18916 6.92788 1.15907 6.78525C1.12897 6.64262 1.13682 6.49459 1.18182 6.35594C1.22682 6.21729 1.30741 6.09287 1.41553 5.9951C1.52365 5.89733 1.65553 5.82963 1.79799 5.79877L5.41666 5.01477L7.27999 1.8161Z" fill="#FFCC00"/>
<path d="M25.28 1.8161C25.3534 1.69021 25.4584 1.58575 25.5848 1.51315C25.7111 1.44055 25.8543 1.40234 26 1.40234C26.1457 1.40234 26.2889 1.44055 26.4152 1.51315C26.5415 1.58575 26.6466 1.69021 26.72 1.8161L28.5833 5.01477L32.202 5.79877C32.3443 5.8297 32.4761 5.8974 32.5841 5.99512C32.6921 6.09284 32.7726 6.21717 32.8176 6.35571C32.8626 6.49426 32.8705 6.64217 32.8405 6.78471C32.8105 6.92725 32.7437 7.05944 32.6467 7.1681L30.18 9.92877L30.5533 13.6121C30.5681 13.7571 30.5445 13.9035 30.4849 14.0366C30.4254 14.1696 30.332 14.2848 30.2141 14.3705C30.0961 14.4562 29.9578 14.5094 29.8128 14.5249C29.6679 14.5404 29.5214 14.5176 29.388 14.4588L26 12.9654L22.612 14.4588C22.4786 14.5176 22.3321 14.5404 22.1872 14.5249C22.0422 14.5094 21.9038 14.4562 21.7859 14.3705C21.668 14.2848 21.5746 14.1696 21.515 14.0366C21.4555 13.9035 21.4319 13.7571 21.4467 13.6121L21.82 9.92877L19.3533 7.16877C19.2561 7.06012 19.1892 6.92788 19.1591 6.78525C19.129 6.64262 19.1368 6.49459 19.1818 6.35594C19.2268 6.21729 19.3074 6.09287 19.4155 5.9951C19.5236 5.89733 19.6555 5.82963 19.798 5.79877L23.4167 5.01477L25.28 1.8161Z" fill="#FFCC00"/>
<path d="M43.28 1.8161C43.3534 1.69021 43.4584 1.58575 43.5848 1.51315C43.7111 1.44055 43.8543 1.40234 44 1.40234C44.1457 1.40234 44.2889 1.44055 44.4152 1.51315C44.5415 1.58575 44.6466 1.69021 44.72 1.8161L46.5833 5.01477L50.202 5.79877C50.3443 5.8297 50.4761 5.8974 50.5841 5.99512C50.6921 6.09284 50.7726 6.21717 50.8176 6.35571C50.8626 6.49426 50.8705 6.64217 50.8405 6.78471C50.8105 6.92725 50.7437 7.05944 50.6467 7.1681L48.18 9.92877L48.5533 13.6121C48.5681 13.7571 48.5445 13.9035 48.4849 14.0366C48.4254 14.1696 48.332 14.2848 48.2141 14.3705C48.0961 14.4562 47.9578 14.5094 47.8128 14.5249C47.6679 14.5404 47.5214 14.5176 47.388 14.4588L44 12.9654L40.612 14.4588C40.4786 14.5176 40.3321 14.5404 40.1872 14.5249C40.0422 14.5094 39.9038 14.4562 39.7859 14.3705C39.668 14.2848 39.5746 14.1696 39.515 14.0366C39.4555 13.9035 39.4319 13.7571 39.4467 13.6121L39.82 9.92877L37.3533 7.16877C37.2561 7.06012 37.1892 6.92788 37.1591 6.78525C37.129 6.64262 37.1368 6.49459 37.1818 6.35594C37.2268 6.21729 37.3074 6.09287 37.4155 5.9951C37.5236 5.89733 37.6555 5.82963 37.798 5.79877L41.4167 5.01477L43.28 1.8161Z" fill="#FFCC00"/>
<path d="M61.28 1.8161C61.3534 1.69021 61.4584 1.58575 61.5848 1.51315C61.7111 1.44055 61.8543 1.40234 62 1.40234C62.1457 1.40234 62.2889 1.44055 62.4152 1.51315C62.5415 1.58575 62.6466 1.69021 62.72 1.8161L64.5833 5.01477L68.202 5.79877C68.3443 5.8297 68.4761 5.8974 68.5841 5.99512C68.6921 6.09284 68.7726 6.21717 68.8176 6.35571C68.8626 6.49426 68.8705 6.64217 68.8405 6.78471C68.8105 6.92725 68.7437 7.05944 68.6467 7.1681L66.18 9.92877L66.5533 13.6121C66.5681 13.7571 66.5445 13.9035 66.4849 14.0366C66.4254 14.1696 66.332 14.2848 66.2141 14.3705C66.0961 14.4562 65.9578 14.5094 65.8128 14.5249C65.6679 14.5404 65.5214 14.5176 65.388 14.4588L62 12.9654L58.612 14.4588C58.4786 14.5176 58.3321 14.5404 58.1872 14.5249C58.0422 14.5094 57.9038 14.4562 57.7859 14.3705C57.668 14.2848 57.5746 14.1696 57.515 14.0366C57.4555 13.9035 57.4319 13.7571 57.4467 13.6121L57.82 9.92877L55.3533 7.16877C55.2561 7.06012 55.1892 6.92788 55.1591 6.78525C55.129 6.64262 55.1368 6.49459 55.1818 6.35594C55.2268 6.21729 55.3074 6.09287 55.4155 5.9951C55.5236 5.89733 55.6555 5.82963 55.798 5.79877L59.4167 5.01477L61.28 1.8161Z" fill="#FFCC00"/>
<path d="M79.28 1.8161C79.3534 1.69021 79.4584 1.58575 79.5848 1.51315C79.7111 1.44055 79.8543 1.40234 80 1.40234C80.1457 1.40234 80.2889 1.44055 80.4152 1.51315C80.5415 1.58575 80.6466 1.69021 80.72 1.8161L82.5833 5.01477L86.202 5.79877C86.3443 5.8297 86.4761 5.8974 86.5841 5.99512C86.6921 6.09284 86.7726 6.21717 86.8176 6.35571C86.8626 6.49426 86.8705 6.64217 86.8405 6.78471C86.8105 6.92725 86.7437 7.05944 86.6467 7.1681L84.18 9.92877L84.5533 13.6121C84.5681 13.7571 84.5445 13.9035 84.4849 14.0366C84.4254 14.1696 84.332 14.2848 84.2141 14.3705C84.0961 14.4562 83.9578 14.5094 83.8128 14.5249C83.6679 14.5404 83.5214 14.5176 83.388 14.4588L80 12.9654L76.612 14.4588C76.4786 14.5176 76.3321 14.5404 76.1872 14.5249C76.0422 14.5094 75.9038 14.4562 75.7859 14.3705C75.668 14.2848 75.5746 14.1696 75.515 14.0366C75.4555 13.9035 75.4319 13.7571 75.4467 13.6121L75.82 9.92877L73.3533 7.16877C73.2561 7.06012 73.1892 6.92788 73.1591 6.78525C73.129 6.64262 73.1368 6.49459 73.1818 6.35594C73.2268 6.21729 73.3074 6.09287 73.4155 5.9951C73.5236 5.89733 73.6555 5.82963 73.798 5.79877L77.4167 5.01477L79.28 1.8161Z" fill="#FFCC00"/>
</svg>
